<svg id="Box_3.1" data-name="Box 3.1" xmlns="http://www.w3.org/2000/svg" width="48" height="48" viewBox="0 0 48 48">
  <path id="Path" d="M0,0H48V48H0Z" fill="none"/>
  <g id="Group" transform="translate(5 6)">
    <path id="Path-2" data-name="Path" d="M34.86,7.38A1.975,1.975,0,0,1,36.04,9.2V26.72A2,2,0,0,1,35,28.46L19,37.34a2.121,2.121,0,0,1-1.96,0l-16-8.9A2.035,2.035,0,0,1,0,26.68V9.14A2,2,0,0,1,1.18,7.3l16-7.12a1.912,1.912,0,0,1,1.62,0l16,7.1Z" transform="translate(0.94 0.08)" fill="#6f64ea" opacity="0.399"/>
    <path id="Path-3" data-name="Path" d="M14.74,0,0,8.18v9.16l4,2V10.5L19.3,1.98Z" transform="translate(10.18 2.44)" fill="#6f64ea"/>
  </g>
</svg>
