<svg xmlns="http://www.w3.org/2000/svg" width="36.02" height="36.04" viewBox="0 0 36.02 36.04">
  <g id="Group" transform="translate(-0.98 -0.96)">
    <path id="Path" d="M18,0A18,18,0,1,0,33.588,9,18,18,0,0,0,18,0Z" transform="translate(1 1)" fill="#6f64ea" opacity="0.397"/>
    <path id="Shape" d="M0,18.02v-.5c1.3.12,3.7.4,3.8,1.319.14,1.281,0,2.88,1.08,3.361.525.233.87-.22,1.193-.673.339-.478.654-.956,1.127-.627.92.64,3.42,1.24,3.42,2.38,0,1.12-.48,2.88,0,3.2a12.774,12.774,0,0,1,2.32,2.88c0,.32.64,1.94.46,2.561a9.767,9.767,0,0,1-1.78,2.839,17.79,17.79,0,0,0,5.76,1.16l.1.1A18.014,18.014,0,0,1,0,18.02Zm21.62,5.9a2.353,2.353,0,0,0-1-.022c-.869.077-1.892.156-1.756-.977.2-1.68,1.62-1.78,3.139-2.461,1.52-.7,3.721-2.98,2.641-3.28a10.833,10.833,0,0,1-6.84-6.32c-.32-.06-.24-3.48-1.561-3.58a7.015,7.015,0,0,0-1.43.067,7.275,7.275,0,0,1-2.55-.067c-1.939-.4-1.54-1.68-1.84-4.42A4.571,4.571,0,0,1,10.4,1.48l.159.14A17.721,17.721,0,0,1,17.98,0,17.98,17.98,0,0,1,34.04,9.88c.06,1.56.04,2.88.38,3.36,1.741,2.44-4.28,4.14-3.36,7.84.4,1.62-4.02,1.1-5.1,2.641a2.127,2.127,0,0,1-1.836.813A6.473,6.473,0,0,1,21.62,23.92Z" transform="translate(0.98 0.96)" fill="#6f64ea"/>
  </g>
</svg>
