<svg id="Group_Chat" data-name="Group Chat" xmlns="http://www.w3.org/2000/svg" width="48" height="48" viewBox="0 0 48 48">
  <path id="Path" d="M0,0H48V48H0Z" fill="none"/>
  <g id="Group" transform="translate(3 5)">
    <path id="Path-2" data-name="Path" d="M19.68,25.3V18.02a6,6,0,0,0-6-6H0V5.06A5.049,5.049,0,0,1,5.04,0H28.6a5.045,5.045,0,0,1,5.04,5.04V20.18l.02,9.36a1.016,1.016,0,0,1-1,1,1.029,1.029,0,0,1-.72-.3L26.9,25.2H19.58Z" transform="translate(9.32 0.96)" fill="#6f64ea"/>
    <path id="Shape" d="M.34,20.34a1.036,1.036,0,0,1-.28-.7V14.62A3.627,3.627,0,0,1,0,13.96L.04,14V4a3.986,3.986,0,0,1,4-4h16a4,4,0,0,1,4,4V14a4.012,4.012,0,0,1-4,4H4.26l-2.5,2.38a1,1,0,0,1-.688.273A1.008,1.008,0,0,1,.34,20.34Z" transform="translate(0.92 17)" fill="#6f64ea" opacity="0.398"/>
  </g>
</svg>
