<svg xmlns="http://www.w3.org/2000/svg" width="80.04" height="80.24" viewBox="0 0 80.04 80.24">
  <g id="Image_2_Copy_3" data-name="Image 2 Copy 3" transform="translate(-0.92 -0.72)">
    <path id="Path" d="M76.92,13.88V19.4c0,.88-.04,1.84-.12,2.76-1.16,12.6-9.92,20.88-22.6,20.88H19.56c-6.44,0-11.84-2.12-15.72-5.88A17.942,17.942,0,0,1,0,32.2c1.32-1.64,2.8-3.4,4.24-5.16,2.44-2.96,4.8-5.84,6.28-7.72,2.2-2.76,8-9.92,16.04-6.56a28.709,28.709,0,0,1,4.4,2.48c3.24,2.16,4.6,2.8,6.88,1.564,2.52-1.4,4.16-4.08,5.88-6.88a49.637,49.637,0,0,1,2.84-4.28c4.36-5.72,11.08-7.24,16.68-3.88a41.928,41.928,0,0,1,7.44,5.96c.48.48.96.92,1.4,1.36.6.6,2.6,2.6,4.6,4.52Z" transform="translate(4.04 37.92)" fill="#151b41"/>
    <path id="Path-2" data-name="Path" d="M57.4.28H22.72C9.12.28,0,9.76,0,23.92V56.6A25.654,25.654,0,0,0,3.16,69.44c1.32-1.64,2.8-3.4,4.24-5.16,2.44-2.96,4.8-5.84,6.28-7.72,2.2-2.76,8-9.92,16.04-6.56a28.709,28.709,0,0,1,4.4,2.48c3.24,2.16,4.6,2.8,6.88,1.56,2.52-1.36,4.16-4.08,5.88-6.88a49.637,49.637,0,0,1,2.84-4.28C54.08,37.16,60.8,35.64,66.4,39a41.928,41.928,0,0,1,7.44,5.96c.48.48.96.92,1.4,1.36.6.56,2.6,2.6,4.6,4.52V23.68C79.84,9.52,70.72,0,57.16,0Z" transform="translate(0.92 0.72)" fill="#151b41" opacity="0.4"/>
    <path id="Path-3" data-name="Path" d="M20.72,10.4A10.458,10.458,0,0,1,10.36,20.72,10.448,10.448,0,0,1,0,10.36,10.432,10.432,0,0,1,10.32,0,10.424,10.424,0,0,1,20.64,10.32Z" transform="translate(18.08 17.76)" fill="#151b41"/>
  </g>
</svg>
