<svg xmlns="http://www.w3.org/2000/svg" width="32.418" height="37.053" viewBox="0 0 32.418 37.053">
  <g id="Shield_Check" data-name="Shield Check" transform="translate(-0.846 -0.274)">
    <path id="Path" d="M.054,9.014a5.383,5.383,0,0,1,3.69-5.13L14.526.283a5.245,5.245,0,0,1,3.4,0l10.8,3.6A5.384,5.384,0,0,1,32.418,9V18.59c0,9.9-10.026,15.912-14.292,18.018a4.347,4.347,0,0,1-3.834,0C10.008,34.484,0,28.472,0,18.572V8.96Z" transform="translate(0.846 0.275)" fill="#6f64ea" opacity="0.401"/>
    <path id="Path-2" data-name="Path" d="M13.914.594a1.793,1.793,0,0,1,0,2.538L7.722,9.306a3.259,3.259,0,0,1-4.59,0L.54,6.714a1.782,1.782,0,0,1,0-2.556,1.761,1.761,0,0,1,2.538,0L5.4,6.48,11.322.54a1.761,1.761,0,0,1,2.538,0Z" transform="translate(9.846 13.428)" fill="#6f64ea"/>
  </g>
</svg>
