<svg id="Thunder_Move.5" data-name="Thunder Move.5" xmlns="http://www.w3.org/2000/svg" width="48" height="48" viewBox="0 0 48 48">
  <path id="Path" d="M0,0H48V48H0Z" fill="none"/>
  <g id="Group" transform="translate(2 7)">
    <path id="Path-2" data-name="Path" d="M13.495,32.48l11.68-17.56a1.55,1.55,0,0,0-.42-2.1,1.437,1.437,0,0,0-.84-.26h-9.2V1.5a1.511,1.511,0,0,0-2.76-.84L.255,18.2a1.506,1.506,0,0,0,.4,2.08,1.46,1.46,0,0,0,.82.24h9.18V31.56a1.49,1.49,0,0,0,2.74.82Z" transform="translate(17.245 0.38)" fill="#6f64ea"/>
    <path id="Shape" d="M7,30a3,3,0,1,1,0-6H17a3,3,0,0,1,0,6ZM3,18a3,3,0,0,1,0-6h8a3,3,0,1,1,0,6ZM7,6A3,3,0,1,1,7,0H17a3.009,3.009,0,0,1,3,3,3.022,3.022,0,0,1-3,3Z" transform="translate(0 3)" fill="#6f64ea" opacity="0.396"/>
  </g>
</svg>
