<svg width="720" height="446" viewBox="0 0 720 446" fill="none" xmlns="http://www.w3.org/2000/svg">
<path fill-rule="evenodd" clip-rule="evenodd" d="M690.165 250.315L674.729 247.167C668.262 245.865 663.457 240.408 662.982 233.828C662.129 221.266 659.718 208.859 655.805 196.892C653.791 190.611 656.209 183.758 661.719 180.132L674.855 171.414C678.137 169.256 680.425 165.881 681.216 162.033C682.007 158.186 681.235 154.182 679.071 150.904L662.41 125.719C660.243 122.442 656.862 120.161 653.013 119.377C649.163 118.593 645.16 119.371 641.884 121.538L628.729 130.221C623.23 133.878 615.966 133.416 610.975 129.092C601.493 120.803 591.015 113.73 579.782 108.035C573.909 105.024 570.777 98.4545 572.135 91.9953L575.274 76.5599C576.907 68.547 571.738 60.7261 563.726 59.0889L534.141 53.0594C530.294 52.2702 526.291 53.0433 523.014 55.2082C519.738 57.3732 517.457 60.7522 516.674 64.6006L513.522 80.0361C512.226 86.5054 506.776 91.3173 500.196 91.8024C487.641 92.6486 475.239 95.0509 463.276 98.9542C456.985 100.992 450.108 98.5691 446.484 93.0372L437.802 79.8849C435.638 76.609 432.26 74.3276 428.413 73.5435C424.566 72.7594 420.565 73.5368 417.292 75.7045L392.093 92.3459C385.274 96.8616 383.403 106.049 387.913 112.872L396.595 126.024C400.276 131.521 399.819 138.801 395.479 143.794C387.207 153.289 380.134 163.765 374.42 174.987C371.413 180.858 364.854 183.998 358.396 182.656L342.96 179.498C339.112 178.709 335.108 179.483 331.831 181.65C328.555 183.816 326.274 187.196 325.492 191.046L319.46 220.631C317.826 228.644 322.995 236.464 331.007 238.102L346.443 241.25C352.916 242.552 357.726 248.01 358.206 254.595C359.046 267.146 361.45 279.543 365.361 291.499C367.395 297.789 364.981 304.664 359.46 308.301L346.295 316.983C343.016 319.147 340.733 322.527 339.949 326.376C339.165 330.225 339.944 334.229 342.115 337.503L358.749 362.685C363.272 369.505 372.463 371.375 379.291 366.866L392.424 358.161C397.929 354.498 405.203 354.968 410.191 359.309C419.667 367.587 430.135 374.654 441.355 380.349C447.233 383.361 450.376 389.928 449.034 396.396L445.886 411.831C445.098 415.678 445.872 419.681 448.037 422.957C450.203 426.233 453.582 428.513 457.43 429.296L487.015 435.348C495.033 436.958 502.845 431.783 504.489 423.771L507.624 408.336C508.929 401.861 514.392 397.051 520.979 396.576C533.526 395.726 545.918 393.323 557.873 389.424C564.161 387.395 571.03 389.813 574.659 395.334L583.342 408.487C587.855 415.314 597.046 417.194 603.877 412.686L629.063 396.019C632.343 393.855 634.626 390.475 635.411 386.625C636.195 382.775 635.415 378.771 633.243 375.497L624.542 362.341C620.884 356.843 621.345 349.58 625.667 344.587C633.969 335.124 641.045 324.651 646.727 313.417C649.734 307.546 656.297 304.411 662.754 305.76L678.218 308.902C682.066 309.69 686.068 308.916 689.344 306.751C692.62 304.585 694.901 301.206 695.683 297.358L701.713 267.773C702.497 263.927 701.721 259.928 699.555 256.655C697.389 253.381 694.011 251.103 690.165 250.321M458.225 193.673C486.127 164.761 532.186 163.944 561.092 191.843C589.998 219.743 590.822 265.805 562.922 294.711C535.022 323.617 488.96 324.441 460.054 296.541C431.148 268.641 430.325 222.579 458.225 193.673Z" fill="#1F254B"/>
<path fill-rule="evenodd" clip-rule="evenodd" d="M319.666 358.312L310.147 352.292C306.15 349.783 304.321 344.914 305.677 340.394C308.297 331.788 309.837 322.891 310.263 313.906C310.509 309.194 313.867 305.224 318.473 304.201L329.461 301.705C335.163 300.429 338.751 294.773 337.477 289.071L332.731 268.014C331.442 262.313 325.776 258.735 320.074 260.02L309.079 262.496C304.478 263.543 299.744 261.394 297.503 257.242C293.273 249.3 288.068 241.918 282.009 235.265C278.85 231.763 278.423 226.58 280.968 222.608L286.981 213.083C290.104 208.144 288.633 201.608 283.695 198.484L265.449 186.952C263.078 185.452 260.208 184.954 257.47 185.57C254.733 186.186 252.352 187.864 250.852 190.236L244.81 199.748C242.302 203.746 237.435 205.579 232.912 204.23C224.307 201.613 215.411 200.074 206.427 199.648C201.708 199.414 197.728 196.052 196.709 191.438L194.233 180.447C193.619 177.708 191.941 175.326 189.568 173.827C187.195 172.328 184.323 171.834 181.586 172.456L160.529 177.189C154.828 178.479 151.25 184.144 152.535 189.847L155.011 200.841C156.067 205.445 153.911 210.187 149.747 212.418C141.814 216.662 134.433 221.865 127.771 227.911C124.274 231.075 119.093 231.511 115.117 228.975L105.601 222.952C103.229 221.452 100.358 220.955 97.6194 221.571C94.8808 222.187 92.4993 223.866 90.9988 226.239L79.4673 244.478C76.3453 249.42 77.8161 255.956 82.7537 259.084L92.2723 265.101C96.2686 267.61 98.0998 272.478 96.7486 276.999C94.1286 285.599 92.5915 294.493 92.1726 303.474C91.938 308.192 88.5828 312.174 83.9725 313.205L72.9715 315.671C70.2328 316.288 67.8517 317.968 66.3523 320.342C64.8529 322.715 64.3582 325.587 64.9772 328.325L69.7268 349.362C71.0227 355.063 76.6851 358.642 82.3904 357.366L93.372 354.881C97.9772 353.833 102.715 355.99 104.949 360.151C109.181 368.086 114.384 375.462 120.439 382.111C123.603 385.615 124.038 390.8 121.5 394.781L115.483 404.3C113.979 406.67 113.48 409.542 114.096 412.281C114.712 415.02 116.392 417.401 118.767 418.899L137.003 430.444C141.95 433.555 148.48 432.081 151.612 427.147L157.625 417.622C160.137 413.629 165.003 411.8 169.524 413.149C178.123 415.763 187.014 417.299 195.992 417.722C200.708 417.963 204.683 421.32 205.71 425.929L208.18 436.92C209.473 442.622 215.134 446.204 220.84 444.93L241.893 440.181C244.633 439.566 247.017 437.887 248.517 435.513C250.017 433.139 250.512 430.266 249.891 427.527L247.415 416.532C246.367 411.932 248.515 407.198 252.666 404.956C260.613 400.737 267.997 395.534 274.642 389.469C278.14 386.309 283.32 385.877 287.293 388.414L296.828 394.434C299.199 395.936 302.07 396.434 304.809 395.818C307.547 395.201 309.928 393.521 311.427 391.147L322.958 372.905C324.46 370.534 324.956 367.663 324.337 364.926C323.719 362.189 322.037 359.81 319.662 358.315M179.061 261.66C205.034 249.416 236.015 260.545 248.259 286.518C260.504 312.49 249.375 343.471 223.402 355.716C197.43 367.96 166.449 356.832 154.204 330.859C148.324 318.386 147.639 304.089 152.301 291.111C156.962 278.134 166.589 267.54 179.061 261.66Z" fill="#1F254B"/>
<path fill-rule="evenodd" clip-rule="evenodd" d="M350.215 110.692L343.655 107.476C340.904 106.142 339.382 103.137 339.934 100.131C341.008 94.3986 341.367 88.5549 341.002 82.7341C340.827 79.6804 342.711 76.8854 345.607 75.9007L352.511 73.5146C356.095 72.2872 358.007 68.3888 356.784 64.8032L352.234 51.5737C350.999 47.9924 347.095 46.0894 343.513 47.3226L336.603 49.6958C333.711 50.6963 330.507 49.6437 328.772 47.1232C325.483 42.3066 321.607 37.9177 317.234 34.0577C314.949 32.0258 314.307 28.7161 315.665 25.9766L318.881 19.4133C320.54 16.0112 319.129 11.9083 315.729 10.2453L303.156 4.10326C299.753 2.43945 295.646 3.84887 293.981 7.25145L290.766 13.8147C289.432 16.5651 286.428 18.0893 283.421 17.5418C277.692 16.4661 271.852 16.1042 266.034 16.4645C262.976 16.6475 260.173 14.7635 259.187 11.8628L256.814 4.95221C256.226 3.2295 254.977 1.81187 253.341 1.01287C251.706 0.213865 249.82 0.0993309 248.099 0.694598L234.864 5.23198C231.282 6.46729 229.378 10.3701 230.609 13.953L232.982 20.8636C233.985 23.7543 232.932 26.9584 230.41 28.6907C225.596 31.9915 221.208 35.8732 217.344 40.248C215.314 42.5329 212.008 43.1804 209.266 41.8301L202.706 38.6144C201.072 37.8145 199.188 37.6968 197.467 38.2873C195.746 38.8778 194.331 40.128 193.532 41.7626L187.39 54.3328C185.728 57.7376 187.139 61.8448 190.541 63.5105L197.098 66.7262C199.851 68.0594 201.377 71.065 200.828 74.0741C199.746 79.8013 199.384 85.6413 199.751 91.4583C199.933 94.5166 198.052 97.3203 195.153 98.311L188.239 100.678C184.662 101.91 182.758 105.807 183.984 109.386L188.522 122.612C189.757 126.195 193.661 128.102 197.246 126.873L204.144 124.5C207.036 123.496 210.243 124.549 211.977 127.072C215.267 131.885 219.141 136.271 223.512 140.128C225.8 142.161 226.446 145.472 225.091 148.216L221.875 154.776C221.074 156.41 220.956 158.296 221.547 160.017C222.137 161.739 223.388 163.155 225.023 163.954L237.594 170.102C241.002 171.752 245.102 170.341 246.775 166.944L249.974 160.378C251.315 157.62 254.333 156.097 257.348 156.657C263.069 157.733 268.902 158.095 274.713 157.734C277.768 157.554 280.567 159.436 281.553 162.333L283.923 169.24C285.154 172.827 289.059 174.737 292.647 173.507L305.876 168.957C307.599 168.368 309.016 167.118 309.815 165.482C310.614 163.846 310.728 161.96 310.134 160.239L307.761 153.329C306.76 150.436 307.812 147.231 310.333 145.495C315.156 142.215 319.546 138.34 323.399 133.961C325.428 131.676 328.735 131.032 331.474 132.388L338.046 135.604C339.681 136.403 341.566 136.521 343.287 135.929C345.008 135.338 346.423 134.088 347.221 132.452L353.36 119.882C354.16 118.248 354.277 116.364 353.685 114.643C353.093 112.923 351.841 111.51 350.205 110.714M252.769 58.3782C268.639 48.6519 289.389 53.6323 299.116 69.5023C308.843 85.3723 303.863 106.123 287.994 115.85C272.124 125.578 251.374 120.599 241.646 104.73C236.966 97.1066 235.509 87.9361 237.594 79.238C239.68 70.5399 245.138 63.0276 252.766 58.3557L252.769 58.3782Z" fill="#1F254B"/>
<path fill-rule="evenodd" clip-rule="evenodd" d="M156.502 273.922V319.424L209.645 319.437V273.934H238.873V226.107H209.658V87.6027H173.452L65.1758 226.438V273.922H156.502ZM162.812 226.094H117.64L162.812 167.304V226.094Z" fill="url(#paint0_linear)"/>
<path fill-rule="evenodd" clip-rule="evenodd" d="M428.301 248.865C432.726 234.67 434.939 219.128 434.939 202.237C434.939 185.343 432.726 169.794 428.301 155.589C423.877 141.385 417.793 129.1 410.049 118.737C402.308 108.372 393.183 100.246 382.674 94.3589C372.165 88.472 360.717 85.5285 348.33 85.5285C335.941 85.5307 324.437 88.4741 313.819 94.3589C303.2 100.244 294.019 108.37 286.276 118.737C278.532 129.098 272.504 141.382 268.191 155.589C263.877 169.797 261.721 185.346 261.721 202.237C261.721 219.117 263.877 234.66 268.191 248.865C272.504 263.07 278.532 275.355 286.276 285.72C294.022 296.085 303.202 304.147 313.819 309.905C324.435 315.664 335.938 318.543 348.33 318.543C360.717 318.543 372.165 315.664 382.674 309.905C393.183 304.147 402.308 296.085 410.049 285.72C417.793 275.344 423.877 263.059 428.301 248.865ZM348.33 134.465C374.117 134.44 381.513 181.521 381.513 202.237C381.513 223.338 374.821 271.236 348.33 271.031C320.141 270.809 314.812 223.924 314.812 202.237C314.812 180.926 323.401 134.488 348.33 134.465Z" fill="url(#paint1_linear)"/>
<path fill-rule="evenodd" clip-rule="evenodd" d="M552.423 273.922V319.424L605.562 319.437V273.934H634.79V226.107H605.562V87.6027H569.357L461.08 226.438V273.922H552.423ZM558.732 226.094H513.561L558.732 167.304V226.094Z" fill="url(#paint2_linear)"/>
<path fill-rule="evenodd" clip-rule="evenodd" d="M486.883 337.85H719.923V344.88H486.883V346.809C486.878 348.549 485.468 349.957 483.728 349.96H480.58V332.782H483.728C485.469 332.786 486.879 334.196 486.883 335.937V337.85Z" fill="url(#paint3_linear)"/>
<path fill-rule="evenodd" clip-rule="evenodd" d="M459.063 310.806H424.469V371.969H459.015C471.166 371.935 481.008 362.095 481.043 349.944V332.785C481.008 320.661 471.188 310.841 459.063 310.806" fill="url(#paint4_linear)"/>
<path fill-rule="evenodd" clip-rule="evenodd" d="M427.614 307.658H444.21C444.402 307.658 444.594 307.676 444.782 307.712C444.879 307.692 444.977 307.681 445.075 307.68C449.159 307.68 452.471 322.778 452.471 341.4C452.471 360.023 449.162 375.117 445.075 375.117C444.954 375.116 444.833 375.102 444.715 375.075C444.548 375.102 444.379 375.116 444.21 375.117H427.614C425.883 375.117 427.369 370.136 427.359 368.406L427.154 315.025C427.154 313.295 425.867 307.629 427.614 307.629" fill="url(#paint5_linear)"/>
<path fill-rule="evenodd" clip-rule="evenodd" d="M427.614 307.68C423.533 307.68 420.218 322.778 420.218 341.4C420.218 360.022 423.527 375.117 427.614 375.117C431.701 375.117 435.01 360.022 435.01 341.4C435.01 322.778 431.701 307.68 427.614 307.68Z" fill="url(#paint6_linear)"/>
<path fill-rule="evenodd" clip-rule="evenodd" d="M292.724 346.24C293.605 346.24 294.332 348.565 294.332 351.433C294.332 354.302 293.615 356.623 292.724 356.623C291.833 356.623 291.116 354.302 291.116 351.433C291.116 348.565 291.833 346.24 292.724 346.24Z" fill="#1A47B6"/>
<path fill-rule="evenodd" clip-rule="evenodd" d="M427.289 347.697C428.173 347.697 428.896 349.369 428.896 351.433C428.896 353.498 428.179 355.17 427.289 355.17C426.398 355.17 425.681 353.498 425.681 351.433C425.681 349.369 426.398 347.697 427.289 347.697Z" fill="#5751E0"/>
<path fill-rule="evenodd" clip-rule="evenodd" d="M427.289 327.807C428.173 327.807 428.896 329.415 428.896 331.364C428.896 333.313 428.179 334.921 427.289 334.921C426.398 334.921 425.681 333.329 425.681 331.364C425.681 329.399 426.398 327.807 427.289 327.807Z" fill="#5751E0"/>
<rect x="403.817" y="347.697" width="23.4587" height="7.47334" fill="#5751E0"/>
<rect x="403.817" y="327.807" width="23.4587" height="7.11318" fill="#5751E0"/>
<path fill-rule="evenodd" clip-rule="evenodd" d="M403.814 347.697C404.698 347.697 405.422 349.369 405.422 351.433C405.422 353.498 404.708 355.17 403.814 355.17C402.92 355.17 402.206 353.498 402.206 351.433C402.206 349.369 402.923 347.697 403.814 347.697Z" fill="#E2E7FD"/>
<path fill-rule="evenodd" clip-rule="evenodd" d="M403.814 327.807C404.698 327.807 405.422 329.415 405.422 331.364C405.422 333.313 404.708 334.921 403.814 334.921C402.92 334.921 402.206 333.329 402.206 331.364C402.206 329.399 402.923 327.807 403.814 327.807Z" fill="#E2E7FD"/>
<path fill-rule="evenodd" clip-rule="evenodd" d="M233.04 337.824H0V344.854H233.04V346.783C233.045 348.521 234.454 349.928 236.192 349.932H239.343V332.772H236.192C234.453 332.778 233.045 334.186 233.04 335.924V337.824Z" fill="url(#paint7_linear)"/>
<path fill-rule="evenodd" clip-rule="evenodd" d="M260.856 310.78H295.45V371.946H260.904C248.752 371.915 238.908 362.074 238.873 349.922V332.763C238.908 320.639 248.728 310.819 260.853 310.783" fill="url(#paint8_linear)"/>
<path fill-rule="evenodd" clip-rule="evenodd" d="M292.306 307.635H275.709C275.518 307.634 275.328 307.651 275.14 307.687C275.043 307.668 274.944 307.658 274.844 307.658C270.76 307.658 267.448 322.752 267.448 341.375C267.448 359.997 270.757 375.091 274.844 375.091C274.965 375.091 275.086 375.079 275.205 375.053C275.372 375.079 275.54 375.092 275.709 375.091H292.306C294.036 375.091 292.553 370.113 292.56 368.383L292.766 315.002C292.766 313.269 294.052 307.606 292.306 307.606" fill="url(#paint9_linear)"/>
<path fill-rule="evenodd" clip-rule="evenodd" d="M292.306 307.658C296.387 307.658 299.702 322.752 299.702 341.375C299.702 359.997 296.393 375.091 292.306 375.091C288.219 375.091 284.91 359.997 284.91 341.375C284.91 322.752 288.219 307.658 292.306 307.658Z" fill="url(#paint10_linear)"/>
<path fill-rule="evenodd" clip-rule="evenodd" d="M292.63 347.671C291.746 347.671 291.022 349.343 291.022 351.404C291.022 353.466 291.74 355.141 292.63 355.141C293.521 355.141 294.238 353.469 294.238 351.404C294.238 349.34 293.521 347.671 292.63 347.671Z" fill="#5751E0"/>
<path fill-rule="evenodd" clip-rule="evenodd" d="M292.63 327.782C291.746 327.782 291.022 329.39 291.022 331.341C291.022 333.293 291.74 334.898 292.63 334.898C293.521 334.898 294.238 333.29 294.238 331.341C294.238 329.393 293.521 327.782 292.63 327.782Z" fill="#5751E0"/>
<defs>
<linearGradient id="paint0_linear" x1="257.345" y1="299.57" x2="379.645" y2="41.2843" gradientUnits="userSpaceOnUse">
<stop stop-color="#5751E0"/>
<stop offset="1" stop-color="#7D7AFF"/>
</linearGradient>
<linearGradient id="paint1_linear" x1="541.072" y1="253.691" x2="541.072" y2="-264.866" gradientUnits="userSpaceOnUse">
<stop stop-color="#5751E0"/>
<stop offset="1" stop-color="#7D7AFF"/>
</linearGradient>
<linearGradient id="paint2_linear" x1="741.211" y1="254.888" x2="741.211" y2="-261.001" gradientUnits="userSpaceOnUse">
<stop stop-color="#5751E0"/>
<stop offset="1" stop-color="#7D7AFF"/>
</linearGradient>
<linearGradient id="paint3_linear" x1="757.49" y1="358.19" x2="757.49" y2="335.618" gradientUnits="userSpaceOnUse">
<stop stop-color="#BEC4E5"/>
<stop offset="1" stop-color="white"/>
</linearGradient>
<linearGradient id="paint4_linear" x1="497.679" y1="345.057" x2="497.679" y2="247.919" gradientUnits="userSpaceOnUse">
<stop stop-color="#BEC4E5"/>
<stop offset="1" stop-color="white"/>
</linearGradient>
<linearGradient id="paint5_linear" x1="452.467" y1="375.117" x2="452.467" y2="307.658" gradientUnits="userSpaceOnUse">
<stop stop-color="#5751E0"/>
<stop offset="1" stop-color="#7D7AFF"/>
</linearGradient>
<linearGradient id="paint6_linear" x1="435.013" y1="375.117" x2="435.013" y2="307.68" gradientUnits="userSpaceOnUse">
<stop stop-color="#BEC4E5"/>
<stop offset="1" stop-color="white"/>
</linearGradient>
<linearGradient id="paint7_linear" x1="277.086" y1="358.167" x2="277.086" y2="335.596" gradientUnits="userSpaceOnUse">
<stop stop-color="#BEC4E5"/>
<stop offset="1" stop-color="white"/>
</linearGradient>
<linearGradient id="paint8_linear" x1="312.09" y1="345.031" x2="312.09" y2="247.894" gradientUnits="userSpaceOnUse">
<stop stop-color="#BEC4E5"/>
<stop offset="1" stop-color="white"/>
</linearGradient>
<linearGradient id="paint9_linear" x1="293.218" y1="375.091" x2="293.218" y2="307.635" gradientUnits="userSpaceOnUse">
<stop stop-color="#5751E0"/>
<stop offset="1" stop-color="#7D7AFF"/>
</linearGradient>
<linearGradient id="paint10_linear" x1="299.702" y1="375.091" x2="299.702" y2="307.658" gradientUnits="userSpaceOnUse">
<stop stop-color="#BEC4E5"/>
<stop offset="1" stop-color="white"/>
</linearGradient>
</defs>
</svg>
